<mxfile modified="2021-01-08T06:49:30.857Z" host="app.diagrams.net" agent="5.0 (Macintosh; Intel Mac OS X 11_0_1) AppleWebKit/537.36 (KHTML, like Gecko) Chrome/87.0.4280.88 Safari/537.36" etag="Tka0rAED9XFc2x0itrQS" version="14.1.8" type="github">
  <diagram id="Ht1M8jgEwFfnCIfOTk4-" name="Page-1">
    <mxGraphModel dx="3389" dy="1717" grid="1" gridSize="10" guides="1" tooltips="1" connect="1" arrows="1" fold="1" page="1" pageScale="1" pageWidth="1169" pageHeight="827" math="0" shadow="0">
      <root>
        <mxCell id="0" />
        <mxCell id="1" parent="0" />
        <mxCell id="2hUWWTEYTGEFhQEbenod-3" value="" style="edgeStyle=orthogonalEdgeStyle;rounded=0;orthogonalLoop=1;jettySize=auto;html=1;" edge="1" parent="1" source="2hUWWTEYTGEFhQEbenod-1" target="2hUWWTEYTGEFhQEbenod-2">
          <mxGeometry relative="1" as="geometry" />
        </mxCell>
        <mxCell id="2hUWWTEYTGEFhQEbenod-1" value="客户发起需求" style="rounded=1;whiteSpace=wrap;html=1;fillColor=#dae8fc;strokeColor=#6c8ebf;" vertex="1" parent="1">
          <mxGeometry x="540" y="280" width="120" height="60" as="geometry" />
        </mxCell>
        <mxCell id="2hUWWTEYTGEFhQEbenod-5" value="" style="edgeStyle=orthogonalEdgeStyle;rounded=0;orthogonalLoop=1;jettySize=auto;html=1;" edge="1" parent="1" source="2hUWWTEYTGEFhQEbenod-2" target="2hUWWTEYTGEFhQEbenod-4">
          <mxGeometry relative="1" as="geometry" />
        </mxCell>
        <mxCell id="2hUWWTEYTGEFhQEbenod-2" value="文员汇总客户需求并发送" style="whiteSpace=wrap;html=1;rounded=1;fillColor=#d5e8d4;strokeColor=#82b366;" vertex="1" parent="1">
          <mxGeometry x="515" y="384" width="170" height="60" as="geometry" />
        </mxCell>
        <mxCell id="2hUWWTEYTGEFhQEbenod-9" value="" style="edgeStyle=orthogonalEdgeStyle;rounded=0;orthogonalLoop=1;jettySize=auto;html=1;" edge="1" parent="1" source="2hUWWTEYTGEFhQEbenod-4" target="2hUWWTEYTGEFhQEbenod-8">
          <mxGeometry relative="1" as="geometry" />
        </mxCell>
        <mxCell id="2hUWWTEYTGEFhQEbenod-4" value="招聘部汇总信息并通知供应商" style="whiteSpace=wrap;html=1;rounded=1;strokeColor=#82b366;fillColor=#d5e8d4;" vertex="1" parent="1">
          <mxGeometry x="515" y="490" width="170" height="60" as="geometry" />
        </mxCell>
        <mxCell id="2hUWWTEYTGEFhQEbenod-11" value="" style="edgeStyle=orthogonalEdgeStyle;rounded=0;orthogonalLoop=1;jettySize=auto;html=1;" edge="1" parent="1" source="2hUWWTEYTGEFhQEbenod-8" target="2hUWWTEYTGEFhQEbenod-10">
          <mxGeometry relative="1" as="geometry" />
        </mxCell>
        <mxCell id="2hUWWTEYTGEFhQEbenod-8" value="供应商招和送人" style="whiteSpace=wrap;html=1;rounded=1;strokeColor=#82b366;fillColor=#d5e8d4;" vertex="1" parent="1">
          <mxGeometry x="540" y="590" width="120" height="60" as="geometry" />
        </mxCell>
        <mxCell id="2hUWWTEYTGEFhQEbenod-13" value="" style="edgeStyle=orthogonalEdgeStyle;rounded=0;orthogonalLoop=1;jettySize=auto;html=1;" edge="1" parent="1" source="2hUWWTEYTGEFhQEbenod-10" target="2hUWWTEYTGEFhQEbenod-12">
          <mxGeometry relative="1" as="geometry" />
        </mxCell>
        <mxCell id="2hUWWTEYTGEFhQEbenod-10" value="文员安排面试" style="whiteSpace=wrap;html=1;rounded=1;strokeColor=#82b366;fillColor=#d5e8d4;" vertex="1" parent="1">
          <mxGeometry x="540" y="690" width="120" height="60" as="geometry" />
        </mxCell>
        <mxCell id="2hUWWTEYTGEFhQEbenod-12" value="当日送人情况反馈招聘部" style="whiteSpace=wrap;html=1;rounded=1;strokeColor=#82b366;fillColor=#d5e8d4;" vertex="1" parent="1">
          <mxGeometry x="530" y="790" width="140" height="70" as="geometry" />
        </mxCell>
        <mxCell id="2hUWWTEYTGEFhQEbenod-14" value="" style="endArrow=classic;html=1;exitX=1;exitY=0.5;exitDx=0;exitDy=0;strokeColor=#FF3333;" edge="1" parent="1" source="2hUWWTEYTGEFhQEbenod-12">
          <mxGeometry width="50" height="50" relative="1" as="geometry">
            <mxPoint x="790" y="870" as="sourcePoint" />
            <mxPoint x="690" y="520" as="targetPoint" />
            <Array as="points">
              <mxPoint x="760" y="825" />
              <mxPoint x="760" y="680" />
              <mxPoint x="760" y="520" />
            </Array>
          </mxGeometry>
        </mxCell>
        <mxCell id="2hUWWTEYTGEFhQEbenod-16" value="招聘部跟踪供应商供人问题" style="rounded=1;whiteSpace=wrap;html=1;strokeColor=#b85450;fillColor=#f8cecc;" vertex="1" parent="1">
          <mxGeometry x="320" y="540" width="150" height="60" as="geometry" />
        </mxCell>
        <mxCell id="2hUWWTEYTGEFhQEbenod-19" value="" style="endArrow=classic;html=1;strokeColor=#FF3333;" edge="1" parent="1" target="2hUWWTEYTGEFhQEbenod-16">
          <mxGeometry width="50" height="50" relative="1" as="geometry">
            <mxPoint x="510" y="520" as="sourcePoint" />
            <mxPoint x="400" y="600" as="targetPoint" />
            <Array as="points">
              <mxPoint x="397" y="520" />
            </Array>
          </mxGeometry>
        </mxCell>
        <mxCell id="2hUWWTEYTGEFhQEbenod-20" value="" style="endArrow=classic;html=1;strokeColor=#FF3333;entryX=0;entryY=0.5;entryDx=0;entryDy=0;exitX=0.5;exitY=1;exitDx=0;exitDy=0;" edge="1" parent="1" source="2hUWWTEYTGEFhQEbenod-16" target="2hUWWTEYTGEFhQEbenod-8">
          <mxGeometry width="50" height="50" relative="1" as="geometry">
            <mxPoint x="400" y="620" as="sourcePoint" />
            <mxPoint x="160" y="450" as="targetPoint" />
            <Array as="points">
              <mxPoint x="395" y="620" />
            </Array>
          </mxGeometry>
        </mxCell>
      </root>
    </mxGraphModel>
  </diagram>
</mxfile>
